# xmcd
#
# Track frame offsets:
#	150
#	14075
#	27342
#	44025
#	56385
#	69712
#	84135
#	99902
#	112487
#	135057
#	146630
#	159380
#	173852
#	188660
#
# Disc length: 2699 seconds
#
# Revision: 1
# Processed by: cddbd v1.4PL0 Copyright (c) Steve Scherf et al.
# Submitted via: audiograbber 1.81.02
#
DISCID=bb0a890e
DTITLE=The Tone Chaperones featuring C. Buggs Coombs - Country n'Rock n'Roll n'
DTITLE=Rhythm n'Blues
DYEAR=2000
DGENRE=Country-Blues
TTITLE0=Hug and Hold and Squeeze Ya
TTITLE1=Bayou Baby
TTITLE2=We Fell  in Love  Anyway
TTITLE3=Yes I'm Gonna Rock
TTITLE4=Now She's Gone
TTITLE5=GT Song
TTITLE6=I'm Not Over
TTITLE7=Cover Band
TTITLE8=Rock N'Roll and Wag the Key
TTITLE9=Out  of My Mind
TTITLE10=She's Bad News
TTITLE11=How Can I Get Over You
TTITLE12=A Man's Gotta Give Up  A Lot
TTITLE13=Rockin' Guitar Man
EXTD=
EXTT0=
EXTT1=
EXTT2=
EXTT3=
EXTT4=
EXTT5=
EXTT6=
EXTT7=
EXTT8=
EXTT9=
EXTT10=
EXTT11=
EXTT12=
EXTT13=
PLAYORDER=
